Coordinates
version=1
nRows=9
nColumns=42
inDegrees=yes

Units are S.I. units (second, meters, Newtons, ...)
If the header above contains a line with 'inDegrees', this indicates whether rotational values are in degrees (yes) or radians (no).

endheader
time	pelvis_tilt	pelvis_list	pelvis_rotation	pelvis_tx	pelvis_ty	pelvis_tz	hip_flexion_r	hip_adduction_r	hip_rotation_r	knee_angle_r	knee_adduction_r	knee_angle_r_beta	ankle_angle_r	subtalar_angle_r	mtp_angle_r	hip_flexion_l	hip_adduction_l	hip_rotation_l	knee_angle_l	knee_adduction_l	knee_angle_l_beta	ankle_angle_l	subtalar_angle_l	mtp_angle_l	lumbar_extension	lumbar_bending	lumbar_rotation	arm_flex_r	arm_add_r	arm_rot_r	elbow_flex_r	pro_sup_r	wrist_flex_r	wrist_dev_r	arm_flex_l	arm_add_l	arm_rot_l	elbow_flex_l	pro_sup_l	wrist_flex_l	wrist_dev_l
      0.77000000	      8.41159689	     -1.83567578	    -10.57843072	     -0.83428191	      0.94626056	      0.29186128	    -21.48944029	      3.94810024	    -11.56563709	      9.66278336	     -4.06195645	      0.16864738	     31.57064621	     27.33101043	     -7.66536595	     17.55781638	     -4.48395744	    -35.42267847	      4.67605799	     -2.00137895	      0.08161261	     12.88964184	     31.54991490	     -7.66536595	    -22.53679589	     -0.22232977	      7.89336809	      6.93210955	    -18.39868112	     12.91201396	     44.60977386	     90.00000001	      0.00000000	      0.00000000	    -15.89093934	     -5.43765241	     -2.30015749	     34.80873434	     90.00000001	      0.00000000	      0.00000000
      0.78000000	      8.38333609	     -1.94926011	    -10.89185725	     -0.81975805	      0.94309452	      0.29231606	    -22.24073689	      3.81351537	    -11.32152287	     10.12029563	     -4.19255142	      0.17663248	     31.98911374	     27.25767289	     -7.66268265	     17.87670325	     -4.61373923	    -35.55309589	      3.88496557	     -1.65092568	      0.06780544	     12.68753719	     32.21558623	     -7.66268265	    -22.46356592	     -0.21573303	      8.19706835	      7.09917527	    -18.52888947	     12.93855227	     44.51038516	     90.00000001	      0.00000000	      0.00000000	    -16.28766011	     -5.28614435	     -2.55871543	     34.98005651	     90.00000001	      0.00000000	      0.00000000
      0.79000000	      8.53831394	     -1.83053055	    -11.27590555	     -0.80477763	      0.94034557	      0.29256382	    -23.16036892	      3.25042301	    -11.15180925	     10.62040639	     -4.15836902	      0.18536106	     32.30712289	     27.18732211	     -7.65867723	     18.04432305	     -4.45811110	    -35.79551706	      3.60589763	     -1.56085978	      0.06293479	     12.46902297	     32.78204555	     -7.65867723	    -22.50721208	     -0.49022920	      8.46311584	      7.17387124	    -18.64730903	     12.97852657	     44.42283431	     90.00000001	      0.00000000	      0.00000000	    -16.62474312	     -5.12817361	     -2.96687802	     35.08543510	     90.00000001	      0.00000000	      0.00000000
      0.80000000	      8.40985032	     -1.86072023	    -11.45658113	     -0.78973943	      0.93738300	      0.29283257	    -23.80438768	      3.05830357	    -11.05366931	     11.08605946	     -4.30626664	      0.19348824	     32.20085114	     27.05436254	     -7.65776618	     18.60298837	     -4.51397739	    -35.28587175	      3.94939096	     -1.61151896	      0.06892988	     12.39087977	     32.52506562	     -7.65776618	    -22.26693918	     -0.52217402	      8.61915951	      7.10756452	    -18.71495230	     12.94771712	     44.37786336	     90.00000001	      0.00000000	      0.00000000	    -16.92077096	     -5.09248155	     -2.99773640	     35.07632879	     90.00000001	      0.00000000	      0.00000000
      0.81000000	      8.74700091	     -1.53400473	    -12.03139523	     -0.77433640	      0.93538259	      0.29298534	    -24.80252252	      2.01378894	    -10.68537745	     11.79796289	     -4.08189446	      0.20591330	     32.37320199	     27.06467269	     -7.65492807	     18.64377427	     -4.10608694	    -35.41206090	      4.65028913	     -2.03546485	      0.08116286	     12.28018044	     32.24097785	     -7.65492807	    -22.45443712	     -1.09551920	      8.93514988	      7.16049216	    -18.69328899	     12.81484420	     43.98609128	     90.00000001	      0.00000000	      0.00000000	    -17.19096370	     -4.99420510	     -3.37480321	     35.31714121	     90.00000001	      0.00000000	      0.00000000
      0.82000000	      8.72230153	     -1.40631963	    -12.36956646	     -0.75881145	      0.93312314	      0.29336928	    -25.44628810	      1.52176072	    -10.43885990	     12.44280671	     -4.22934408	      0.21716795	     32.11368390	     26.97639206	     -7.65369094	     18.98885835	     -3.94662436	    -34.52619528	      5.58522057	     -2.41355929	      0.09748049	     12.07696948	     31.93976774	     -7.65369094	    -22.26754544	     -1.37742531	      9.21232270	      6.92229197	    -18.72477341	     12.79243116	     43.83970267	     90.00000001	      0.00000000	      0.00000000	    -17.35771248	     -5.01782180	     -3.45928268	     35.32796817	     90.00000001	      0.00000000	      0.00000000
      0.83000000	      9.28338131	     -0.73340224	    -12.90206492	     -0.74250539	      0.93188080	      0.29310895	    -26.53626586	     -0.09442323	    -10.70007806	     13.31755630	     -3.88272439	      0.23243521	     31.70735168	     27.53596367	     -7.64642289	     18.90145917	     -3.18512637	    -35.14366591	      7.21977582	     -3.01020664	      0.12600886	     11.83882031	     31.49567116	     -7.64642289	    -22.54265011	     -2.33057665	      9.29077210	      6.76213795	    -18.58951226	     12.45476526	     43.53625679	     90.00000001	      0.00000000	      0.00000000	    -17.51034676	     -4.94249562	     -3.98969852	     35.32459073	     90.00000001	      0.00000000	      0.00000000
      0.84000000	      9.38490560	     -0.41910938	    -13.14918399	     -0.72647399	      0.93043646	      0.29282801	    -27.16301540	     -0.96477840	    -10.49391928	     14.24830867	     -3.73551084	      0.24867990	     30.95936897	     27.46726563	     -7.64450209	     19.23531762	     -2.77672764	    -34.53421588	      8.97438848	     -3.62815676	      0.15663263	     11.39732892	     30.63519006	     -7.64450209	    -22.44898110	     -2.75746046	      9.30920835	      6.49120288	    -18.52569943	     12.34174719	     43.24013087	     90.00000001	      0.00000000	      0.00000000	    -17.57214766	     -4.98098979	     -4.02314279	     35.23524648	     90.00000001	      0.00000000	      0.00000000
      0.85000000	      9.54449025	      0.05544424	    -13.43059331	     -0.71004534	      0.92938021	      0.29269378	    -27.73045882	     -2.03148923	    -10.50780358	     15.31809370	     -3.63151685	      0.26735117	     29.85382934	     27.38816914	     -7.64237250	     19.49691324	     -2.29658698	    -34.25054459	     11.02685152	     -4.13728184	      0.19245487	     10.83797534	     29.56755338	     -7.64237250	    -22.33123473	     -3.39243569	      9.31539581	      6.10439923	    -18.34361896	     12.12450201	     42.84125185	     90.00000001	      0.00000000	      0.00000000	    -17.58596737	     -5.09318750	     -4.10879776	     35.10334405	     90.00000001	      0.00000000	      0.00000000
